<?xml version="1.0" encoding="utf-8"?>
<!-- Generator: Adobe Illustrator 23.0.1, SVG Export Plug-In . SVG Version: 6.00 Build 0)  -->
<svg version="1.1" id="Layer_2" xmlns="http://www.w3.org/2000/svg" xmlns:xlink="http://www.w3.org/1999/xlink" x="0px" y="0px"
	 viewBox="0 0 500 500" style="enable-background:new 0 0 500 500;" xml:space="preserve">
<style type="text/css">
	.st0{fill:#1ED760;}
</style>
<g>
	<g>
		<path class="st0" d="M250,500C112.1,500,0,387.9,0,250S112.1,0,250,0s250,112.1,250,250S387.9,500,250,500z M250,28.8
			C128.1,28.8,28.8,128,28.8,250c0,121.9,99.2,221.2,221.2,221.2c121.9,0,221.2-99.2,221.2-221.2C471.2,128.1,371.9,28.8,250,28.8z"
			/>
	</g>
	<path class="st0" d="M411.2,240.6c-3.9,0-7.7-1.1-11.1-3.2c-54.9-34.1-122.4-53-189.9-53c-39.9,0-78.4,6.3-114.5,18.8
		c-2.2,0.8-4.5,1.2-6.9,1.2c-9,0-17-5.7-19.9-14.2c-1.8-5.3-1.5-11,1-16.1s6.7-8.9,12-10.7c41.3-14.3,84.8-21.5,129.3-21.5
		c75.3,0,148.4,20.6,211.2,59.7c9.9,6.1,12.9,19.1,6.8,29C425.2,236.9,418.5,240.6,411.2,240.6z"/>
	<path class="st0" d="M361.9,296.3c-4.3,0-8.5-1.5-11.9-4.3c-9.7-8.1-20.9-14.5-36.6-20.9c-29.9-12.2-61.1-18.3-92.7-18.3
		c-28.3,0-56.6,5-84.3,14.7c-2,0.7-4.1,1.1-6.2,1.1c-7.8,0-14.8-4.9-17.4-12.3c-1.6-4.7-1.4-9.7,0.7-14.1c2.1-4.5,5.9-7.8,10.5-9.5
		c31.7-11.2,64.2-16.9,96.6-16.9c36.3,0,72.2,7.1,106.6,21.1c12,4.9,29.9,13,46.4,26.8c7.8,6.5,8.8,18.2,2.3,26
		C372.6,293.9,367.4,296.3,361.9,296.3z"/>
	<path class="st0" d="M339.1,358c-4.2,0-8.2-1.7-11.2-4.7c-7.9-7.9-17.2-14.2-30.1-20.3c-23.9-11.4-48.9-17.2-74.3-17.2
		c-24,0-48,5.2-71.5,15.3c-2,0.9-4.1,1.3-6.3,1.3c-6.3,0-12.1-3.8-14.6-9.6c-1.7-3.9-1.8-8.2-0.2-12.2c1.6-3.9,4.6-7,8.5-8.7
		c27.7-12,56-18,84.2-18c30,0,59.5,6.9,87.9,20.4c10.1,4.8,25.2,12.8,38.9,26.6c3,3,4.7,7,4.7,11.2s-1.7,8.2-4.7,11.2
		C347.3,356.3,343.3,358,339.1,358z"/>
</g>
</svg>
